<svg width="89" height="12" viewBox="0 0 89 12" fill="none" xmlns="http://www.w3.org/2000/svg">
<path d="M5.16797 5.14453H6.02344C6.02344 5.75781 5.84766 6.21875 5.49609 6.52734C5.14844 6.83203 4.67578 6.98438 4.07812 6.98438C3.66406 6.98438 3.30469 6.88867 3 6.69727C2.69922 6.50586 2.46484 6.24023 2.29688 5.90039C2.13281 5.56055 2.05078 5.16602 2.05078 4.7168V4.04297C2.05078 3.59375 2.13281 3.19922 2.29688 2.85938C2.46484 2.51953 2.69922 2.25391 3 2.0625C3.30469 1.87109 3.66406 1.77539 4.07812 1.77539C4.67578 1.77539 5.15039 1.92773 5.50195 2.23242C5.85352 2.53711 6.0293 2.99609 6.0293 3.60938H5.17383C5.17383 3.22266 5.08008 2.94531 4.89258 2.77734C4.70898 2.60938 4.4375 2.52539 4.07812 2.52539C3.82031 2.52539 3.60352 2.58984 3.42773 2.71875C3.25195 2.84766 3.11914 3.02734 3.0293 3.25781C2.93945 3.48438 2.89453 3.74414 2.89453 4.03711V4.7168C2.89453 5.01367 2.93945 5.27734 3.0293 5.50781C3.11914 5.73438 3.25195 5.91211 3.42773 6.04102C3.60352 6.16992 3.82031 6.23438 4.07812 6.23438C4.4375 6.23438 4.70898 6.15039 4.89258 5.98242C5.07617 5.81445 5.16797 5.53516 5.16797 5.14453ZM0.673828 4.37695C0.673828 4.89648 0.763672 5.38086 0.943359 5.83008C1.12305 6.2793 1.37305 6.67188 1.69336 7.00781C2.01367 7.34375 2.38477 7.60547 2.80664 7.79297C3.22852 7.98047 3.67969 8.07422 4.16016 8.07422C4.64062 8.07422 5.08984 7.98047 5.50781 7.79297C5.92969 7.60547 6.29883 7.34375 6.61523 7.00781C6.93555 6.67188 7.18555 6.2793 7.36523 5.83008C7.54492 5.38086 7.63477 4.89648 7.63477 4.37695C7.63477 3.85352 7.54492 3.36914 7.36523 2.92383C7.18555 2.47852 6.93555 2.08984 6.61523 1.75781C6.29883 1.42188 5.92969 1.16211 5.50781 0.978516C5.08984 0.791016 4.64062 0.697266 4.16016 0.697266C3.67969 0.697266 3.22852 0.791016 2.80664 0.978516C2.38477 1.16211 2.01367 1.42188 1.69336 1.75781C1.37305 2.08984 1.12305 2.47852 0.943359 2.92383C0.763672 3.36914 0.673828 3.85352 0.673828 4.37695ZM0 4.37695C0 3.75586 0.107422 3.17969 0.322266 2.64844C0.537109 2.11719 0.835938 1.6543 1.21875 1.25977C1.60156 0.861328 2.04297 0.552734 2.54297 0.333984C3.04688 0.111328 3.58594 0 4.16016 0C4.73438 0 5.27148 0.111328 5.77148 0.333984C6.27539 0.552734 6.7168 0.861328 7.0957 1.25977C7.47852 1.6543 7.77734 2.11719 7.99219 2.64844C8.20703 3.17969 8.31445 3.75586 8.31445 4.37695C8.31445 4.99805 8.20703 5.57422 7.99219 6.10547C7.77734 6.63672 7.47852 7.10352 7.0957 7.50586C6.7168 7.9043 6.27539 8.21484 5.77148 8.4375C5.27148 8.66016 4.73438 8.77148 4.16016 8.77148C3.58594 8.77148 3.04688 8.66016 2.54297 8.4375C2.04297 8.21484 1.60156 7.9043 1.21875 7.50586C0.835938 7.10352 0.537109 6.63672 0.322266 6.10547C0.107422 5.57422 0 4.99805 0 4.37695ZM18.1699 7.75781V8.64844H12.5859V7.86914L15.3809 4.75781C15.7246 4.375 15.9902 4.05078 16.1777 3.78516C16.3691 3.51562 16.502 3.27539 16.5762 3.06445C16.6543 2.84961 16.6934 2.63086 16.6934 2.4082C16.6934 2.12695 16.6348 1.87305 16.5176 1.64648C16.4043 1.41602 16.2363 1.23242 16.0137 1.0957C15.791 0.958984 15.5215 0.890625 15.2051 0.890625C14.8262 0.890625 14.5098 0.964844 14.2559 1.11328C14.0059 1.25781 13.8184 1.46094 13.6934 1.72266C13.5684 1.98438 13.5059 2.28516 13.5059 2.625H12.4219C12.4219 2.14453 12.5273 1.70508 12.7383 1.30664C12.9492 0.908203 13.2617 0.591797 13.6758 0.357422C14.0898 0.119141 14.5996 0 15.2051 0C15.7441 0 16.2051 0.0957031 16.5879 0.287109C16.9707 0.474609 17.2637 0.740234 17.4668 1.08398C17.6738 1.42383 17.7773 1.82227 17.7773 2.2793C17.7773 2.5293 17.7344 2.7832 17.6484 3.04102C17.5664 3.29492 17.4512 3.54883 17.3027 3.80273C17.1582 4.05664 16.9883 4.30664 16.793 4.55273C16.6016 4.79883 16.3965 5.04102 16.1777 5.2793L13.8926 7.75781H18.1699ZM24.6855 3.70312V5.00391C24.6855 5.70312 24.623 6.29297 24.498 6.77344C24.373 7.25391 24.1934 7.64062 23.959 7.93359C23.7246 8.22656 23.4414 8.43945 23.1094 8.57227C22.7812 8.70117 22.4102 8.76562 21.9961 8.76562C21.668 8.76562 21.3652 8.72461 21.0879 8.64258C20.8105 8.56055 20.5605 8.42969 20.3379 8.25C20.1191 8.06641 19.9316 7.82812 19.7754 7.53516C19.6191 7.24219 19.5 6.88672 19.418 6.46875C19.3359 6.05078 19.2949 5.5625 19.2949 5.00391V3.70312C19.2949 3.00391 19.3574 2.41797 19.4824 1.94531C19.6113 1.47266 19.793 1.09375 20.0273 0.808594C20.2617 0.519531 20.543 0.3125 20.8711 0.1875C21.2031 0.0625 21.5742 0 21.9844 0C22.3164 0 22.6211 0.0410156 22.8984 0.123047C23.1797 0.201172 23.4297 0.328125 23.6484 0.503906C23.8672 0.675781 24.0527 0.90625 24.2051 1.19531C24.3613 1.48047 24.4805 1.83008 24.5625 2.24414C24.6445 2.6582 24.6855 3.14453 24.6855 3.70312ZM23.5957 5.17969V3.52148C23.5957 3.13867 23.5723 2.80273 23.5254 2.51367C23.4824 2.2207 23.418 1.9707 23.332 1.76367C23.2461 1.55664 23.1367 1.38867 23.0039 1.25977C22.875 1.13086 22.7246 1.03711 22.5527 0.978516C22.3848 0.916016 22.1953 0.884766 21.9844 0.884766C21.7266 0.884766 21.498 0.933594 21.2988 1.03125C21.0996 1.125 20.9316 1.27539 20.7949 1.48242C20.6621 1.68945 20.5605 1.96094 20.4902 2.29688C20.4199 2.63281 20.3848 3.04102 20.3848 3.52148V5.17969C20.3848 5.5625 20.4062 5.90039 20.4492 6.19336C20.4961 6.48633 20.5645 6.74023 20.6543 6.95508C20.7441 7.16602 20.8535 7.33984 20.9824 7.47656C21.1113 7.61328 21.2598 7.71484 21.4277 7.78125C21.5996 7.84375 21.7891 7.875 21.9961 7.875C22.2617 7.875 22.4941 7.82422 22.6934 7.72266C22.8926 7.62109 23.0586 7.46289 23.1914 7.24805C23.3281 7.0293 23.4297 6.75 23.4961 6.41016C23.5625 6.06641 23.5957 5.65625 23.5957 5.17969ZM31.6699 7.75781V8.64844H26.0859V7.86914L28.8809 4.75781C29.2246 4.375 29.4902 4.05078 29.6777 3.78516C29.8691 3.51562 30.002 3.27539 30.0762 3.06445C30.1543 2.84961 30.1934 2.63086 30.1934 2.4082C30.1934 2.12695 30.1348 1.87305 30.0176 1.64648C29.9043 1.41602 29.7363 1.23242 29.5137 1.0957C29.291 0.958984 29.0215 0.890625 28.7051 0.890625C28.3262 0.890625 28.0098 0.964844 27.7559 1.11328C27.5059 1.25781 27.3184 1.46094 27.1934 1.72266C27.0684 1.98438 27.0059 2.28516 27.0059 2.625H25.9219C25.9219 2.14453 26.0273 1.70508 26.2383 1.30664C26.4492 0.908203 26.7617 0.591797 27.1758 0.357422C27.5898 0.119141 28.0996 0 28.7051 0C29.2441 0 29.7051 0.0957031 30.0879 0.287109C30.4707 0.474609 30.7637 0.740234 30.9668 1.08398C31.1738 1.42383 31.2773 1.82227 31.2773 2.2793C31.2773 2.5293 31.2344 2.7832 31.1484 3.04102C31.0664 3.29492 30.9512 3.54883 30.8027 3.80273C30.6582 4.05664 30.4883 4.30664 30.293 4.55273C30.1016 4.79883 29.8965 5.04102 29.6777 5.2793L27.3926 7.75781H31.6699ZM38.5957 5.77734V6.66797H32.4316V6.0293L36.252 0.117188H37.1367L36.1875 1.82812L33.6621 5.77734H38.5957ZM37.4062 0.117188V8.64844H36.3223V0.117188H37.4062ZM44.0508 0.117188V8.64844H42.9199V0.117188H44.0508ZM51.2578 5.93555H52.3828C52.3242 6.47461 52.1699 6.95703 51.9199 7.38281C51.6699 7.80859 51.3164 8.14648 50.8594 8.39648C50.4023 8.64258 49.832 8.76562 49.1484 8.76562C48.6484 8.76562 48.1934 8.67188 47.7832 8.48438C47.377 8.29688 47.0273 8.03125 46.7344 7.6875C46.4414 7.33984 46.2148 6.92383 46.0547 6.43945C45.8984 5.95117 45.8203 5.4082 45.8203 4.81055V3.96094C45.8203 3.36328 45.8984 2.82227 46.0547 2.33789C46.2148 1.84961 46.4434 1.43164 46.7402 1.08398C47.041 0.736328 47.4023 0.46875 47.8242 0.28125C48.2461 0.09375 48.7207 0 49.248 0C49.8926 0 50.4375 0.121094 50.8828 0.363281C51.3281 0.605469 51.6738 0.941406 51.9199 1.37109C52.1699 1.79688 52.3242 2.29102 52.3828 2.85352H51.2578C51.2031 2.45508 51.1016 2.11328 50.9531 1.82812C50.8047 1.53906 50.5938 1.31641 50.3203 1.16016C50.0469 1.00391 49.6895 0.925781 49.248 0.925781C48.8691 0.925781 48.5352 0.998047 48.2461 1.14258C47.9609 1.28711 47.7207 1.49219 47.5254 1.75781C47.334 2.02344 47.1895 2.3418 47.0918 2.71289C46.9941 3.08398 46.9453 3.49609 46.9453 3.94922V4.81055C46.9453 5.22852 46.9883 5.62109 47.0742 5.98828C47.1641 6.35547 47.2988 6.67773 47.4785 6.95508C47.6582 7.23242 47.8867 7.45117 48.1641 7.61133C48.4414 7.76758 48.7695 7.8457 49.1484 7.8457C49.6289 7.8457 50.0117 7.76953 50.2969 7.61719C50.582 7.46484 50.7969 7.24609 50.9414 6.96094C51.0898 6.67578 51.1953 6.33398 51.2578 5.93555ZM59.4961 3.78516V4.70508H54.8789V3.78516H59.4961ZM55.0547 0.117188V8.64844H53.9238V0.117188H55.0547ZM60.4805 0.117188V8.64844H59.3555V0.117188H60.4805ZM66.4336 2.30859H67.418V8.51367C67.418 9.07227 67.3047 9.54883 67.0781 9.94336C66.8516 10.3379 66.5352 10.6367 66.1289 10.8398C65.7266 11.0469 65.2617 11.1504 64.7344 11.1504C64.5156 11.1504 64.2578 11.1152 63.9609 11.0449C63.668 10.9785 63.3789 10.8633 63.0938 10.6992C62.8125 10.5391 62.5762 10.3223 62.3848 10.0488L62.9531 9.4043C63.2188 9.72461 63.4961 9.94727 63.7852 10.0723C64.0781 10.1973 64.3672 10.2598 64.6523 10.2598C64.9961 10.2598 65.293 10.1953 65.543 10.0664C65.793 9.9375 65.9863 9.74609 66.123 9.49219C66.2637 9.24219 66.334 8.93359 66.334 8.56641V3.70312L66.4336 2.30859ZM62.0684 5.54883V5.42578C62.0684 4.94141 62.125 4.50195 62.2383 4.10742C62.3555 3.70898 62.5215 3.36719 62.7363 3.08203C62.9551 2.79688 63.2188 2.57812 63.5273 2.42578C63.8359 2.26953 64.1836 2.19141 64.5703 2.19141C64.9688 2.19141 65.3164 2.26172 65.6133 2.40234C65.9141 2.53906 66.168 2.74023 66.375 3.00586C66.5859 3.26758 66.752 3.58398 66.873 3.95508C66.9941 4.32617 67.0781 4.74609 67.125 5.21484V5.75391C67.082 6.21875 66.998 6.63672 66.873 7.00781C66.752 7.37891 66.5859 7.69531 66.375 7.95703C66.168 8.21875 65.9141 8.41992 65.6133 8.56055C65.3125 8.69727 64.9609 8.76562 64.5586 8.76562C64.1797 8.76562 63.8359 8.68555 63.5273 8.52539C63.2227 8.36523 62.9609 8.14062 62.7422 7.85156C62.5234 7.5625 62.3555 7.22266 62.2383 6.83203C62.125 6.4375 62.0684 6.00977 62.0684 5.54883ZM63.1523 5.42578V5.54883C63.1523 5.86523 63.1836 6.16211 63.2461 6.43945C63.3125 6.7168 63.4121 6.96094 63.5449 7.17188C63.6816 7.38281 63.8555 7.54883 64.0664 7.66992C64.2773 7.78711 64.5293 7.8457 64.8223 7.8457C65.1816 7.8457 65.4785 7.76953 65.7129 7.61719C65.9473 7.46484 66.1328 7.26367 66.2695 7.01367C66.4102 6.76367 66.5195 6.49219 66.5977 6.19922V4.78711C66.5547 4.57227 66.4883 4.36523 66.3984 4.16602C66.3125 3.96289 66.1992 3.7832 66.0586 3.62695C65.9219 3.4668 65.752 3.33984 65.5488 3.24609C65.3457 3.15234 65.1074 3.10547 64.834 3.10547C64.5371 3.10547 64.2812 3.16797 64.0664 3.29297C63.8555 3.41406 63.6816 3.58203 63.5449 3.79688C63.4121 4.00781 63.3125 4.25391 63.2461 4.53516C63.1836 4.8125 63.1523 5.10938 63.1523 5.42578ZM70.1484 3.30469V8.64844H69.0645V2.30859H70.1191L70.1484 3.30469ZM72.1289 2.27344L72.123 3.28125C72.0332 3.26172 71.9473 3.25 71.8652 3.24609C71.7871 3.23828 71.6973 3.23438 71.5957 3.23438C71.3457 3.23438 71.125 3.27344 70.9336 3.35156C70.7422 3.42969 70.5801 3.53906 70.4473 3.67969C70.3145 3.82031 70.209 3.98828 70.1309 4.18359C70.0566 4.375 70.0078 4.58594 69.9844 4.81641L69.6797 4.99219C69.6797 4.60938 69.7168 4.25 69.791 3.91406C69.8691 3.57812 69.9883 3.28125 70.1484 3.02344C70.3086 2.76172 70.5117 2.55859 70.7578 2.41406C71.0078 2.26562 71.3047 2.19141 71.6484 2.19141C71.7266 2.19141 71.8164 2.20117 71.918 2.2207C72.0195 2.23633 72.0898 2.25391 72.1289 2.27344ZM76.6348 7.56445V4.30078C76.6348 4.05078 76.584 3.83398 76.4824 3.65039C76.3848 3.46289 76.2363 3.31836 76.0371 3.2168C75.8379 3.11523 75.5918 3.06445 75.2988 3.06445C75.0254 3.06445 74.7852 3.11133 74.5781 3.20508C74.375 3.29883 74.2148 3.42188 74.0977 3.57422C73.9844 3.72656 73.9277 3.89062 73.9277 4.06641H72.8438C72.8438 3.83984 72.9023 3.61523 73.0195 3.39258C73.1367 3.16992 73.3047 2.96875 73.5234 2.78906C73.7461 2.60547 74.0117 2.46094 74.3203 2.35547C74.6328 2.24609 74.9805 2.19141 75.3633 2.19141C75.8242 2.19141 76.2305 2.26953 76.582 2.42578C76.9375 2.58203 77.2148 2.81836 77.4141 3.13477C77.6172 3.44727 77.7188 3.83984 77.7188 4.3125V7.26562C77.7188 7.47656 77.7363 7.70117 77.7715 7.93945C77.8105 8.17773 77.8672 8.38281 77.9414 8.55469V8.64844H76.8105C76.7559 8.52344 76.7129 8.35742 76.6816 8.15039C76.6504 7.93945 76.6348 7.74414 76.6348 7.56445ZM76.8223 4.80469L76.834 5.56641H75.7383C75.4297 5.56641 75.1543 5.5918 74.9121 5.64258C74.6699 5.68945 74.4668 5.76172 74.3027 5.85938C74.1387 5.95703 74.0137 6.08008 73.9277 6.22852C73.8418 6.37305 73.7988 6.54297 73.7988 6.73828C73.7988 6.9375 73.8438 7.11914 73.9336 7.2832C74.0234 7.44727 74.1582 7.57812 74.3379 7.67578C74.5215 7.76953 74.7461 7.81641 75.0117 7.81641C75.3438 7.81641 75.6367 7.74609 75.8906 7.60547C76.1445 7.46484 76.3457 7.29297 76.4941 7.08984C76.6465 6.88672 76.7285 6.68945 76.7402 6.49805L77.2031 7.01953C77.1758 7.18359 77.1016 7.36523 76.9805 7.56445C76.8594 7.76367 76.6973 7.95508 76.4941 8.13867C76.2949 8.31836 76.0566 8.46875 75.7793 8.58984C75.5059 8.70703 75.1973 8.76562 74.8535 8.76562C74.4238 8.76562 74.0469 8.68164 73.7227 8.51367C73.4023 8.3457 73.1523 8.12109 72.9727 7.83984C72.7969 7.55469 72.709 7.23633 72.709 6.88477C72.709 6.54492 72.7754 6.24609 72.9082 5.98828C73.041 5.72656 73.2324 5.50977 73.4824 5.33789C73.7324 5.16211 74.0332 5.0293 74.3848 4.93945C74.7363 4.84961 75.1289 4.80469 75.5625 4.80469H76.8223ZM80.502 3.56836V8.64844H79.4121V2.30859H80.4434L80.502 3.56836ZM80.2793 5.23828L79.7754 5.2207C79.7793 4.78711 79.8359 4.38672 79.9453 4.01953C80.0547 3.64844 80.2168 3.32617 80.4316 3.05273C80.6465 2.7793 80.9141 2.56836 81.2344 2.41992C81.5547 2.26758 81.9258 2.19141 82.3477 2.19141C82.6445 2.19141 82.918 2.23438 83.168 2.32031C83.418 2.40234 83.6348 2.5332 83.8184 2.71289C84.002 2.89258 84.1445 3.12305 84.2461 3.4043C84.3477 3.68555 84.3984 4.02539 84.3984 4.42383V8.64844H83.3145V4.47656C83.3145 4.14453 83.2578 3.87891 83.1445 3.67969C83.0352 3.48047 82.8789 3.33594 82.6758 3.24609C82.4727 3.15234 82.2344 3.10547 81.9609 3.10547C81.6406 3.10547 81.373 3.16211 81.1582 3.27539C80.9434 3.38867 80.7715 3.54492 80.6426 3.74414C80.5137 3.94336 80.4199 4.17188 80.3613 4.42969C80.3066 4.68359 80.2793 4.95312 80.2793 5.23828ZM84.3867 4.64062L83.6602 4.86328C83.6641 4.51562 83.7207 4.18164 83.8301 3.86133C83.9434 3.54102 84.1055 3.25586 84.3164 3.00586C84.5312 2.75586 84.7949 2.55859 85.1074 2.41406C85.4199 2.26562 85.7773 2.19141 86.1797 2.19141C86.5195 2.19141 86.8203 2.23633 87.082 2.32617C87.3477 2.41602 87.5703 2.55469 87.75 2.74219C87.9336 2.92578 88.0723 3.16211 88.166 3.45117C88.2598 3.74023 88.3066 4.08398 88.3066 4.48242V8.64844H87.2168V4.4707C87.2168 4.11523 87.1602 3.83984 87.0469 3.64453C86.9375 3.44531 86.7812 3.30664 86.5781 3.22852C86.3789 3.14648 86.1406 3.10547 85.8633 3.10547C85.625 3.10547 85.4141 3.14648 85.2305 3.22852C85.0469 3.31055 84.8926 3.42383 84.7676 3.56836C84.6426 3.70898 84.5469 3.87109 84.4805 4.05469C84.418 4.23828 84.3867 4.43359 84.3867 4.64062Z" fill="#737373"/>
</svg>
