<svg width="21" height="21" viewBox="0 0 21 21" fill="none" xmlns="http://www.w3.org/2000/svg">
<path d="M14.4633 3.36245C15.5954 3.42503 16.657 3.93256 17.4165 4.77441C18.1761 5.61626 18.5722 6.72421 18.5184 7.8568C18.5184 10.5028 16.2342 12.1281 14.0421 14.0772C11.8785 16.0092 10.7131 17.0652 10.3359 17.3089C9.92502 17.0428 8.49006 15.7387 6.62961 14.0772C4.42808 12.1203 2.15334 10.4795 2.15334 7.8568C2.09957 6.72421 2.49562 5.61626 3.25519 4.77441C4.01476 3.93256 5.07629 3.42503 6.20843 3.36245C6.83559 3.34344 7.45696 3.48749 8.01178 3.78053C8.5666 4.07357 9.03589 4.50556 9.37377 5.03426C10.0973 6.04631 10.2179 6.55277 10.3384 6.55277C10.459 6.55277 10.5779 6.04631 11.2945 5.03168C11.6305 4.50053 12.0999 4.06683 12.656 3.77391C13.2121 3.48099 13.8352 3.33911 14.4633 3.36245ZM14.4633 1.63981C13.6812 1.61477 12.9035 1.7665 12.1881 2.08369C11.4727 2.40089 10.8381 2.87538 10.3316 3.47183C9.82542 2.87712 9.19213 2.40372 8.47847 2.08662C7.76481 1.76952 6.98903 1.61682 6.20843 1.63981C4.61919 1.70196 3.11921 2.39087 2.0365 3.55589C0.953785 4.72092 0.37644 6.26727 0.430707 7.8568C0.430707 10.9662 2.62707 12.8757 4.75022 14.7215C4.99397 14.9334 5.24031 15.147 5.48492 15.3649L6.3695 16.1556C7.33421 17.0736 8.34559 17.9412 9.39961 18.7551C9.67849 18.9356 10.0036 19.0317 10.3359 19.0317C10.6681 19.0317 10.9932 18.9356 11.2721 18.7551C12.3597 17.9164 13.4022 17.0208 14.3953 16.0721L15.1894 15.3623C15.4418 15.1384 15.6976 14.9153 15.9517 14.6957C17.962 12.9515 20.241 10.9748 20.241 7.8568C20.2953 6.26727 19.7179 4.72092 18.6352 3.55589C17.5525 2.39087 16.0525 1.70196 14.4633 1.63981Z" fill="#262626"/>
</svg>
